<svg width="27" height="27" viewBox="0 0 27 27" fill="none" xmlns="http://www.w3.org/2000/svg">
<path d="M25.5014 16.2131L25.5573 16.2398C26.856 16.9331 27.3587 18.4931 26.6745 19.7464C24.3005 24.0796 19.5245 27.0396 14.0364 26.9996C6.38371 26.9463 0.113547 20.9997 0.00182896 13.6931C-0.123854 6.14658 6.24407 0 14.1341 0C18.5889 0 22.5688 1.9733 25.1523 5.05326L20.0971 7.66655C18.4772 6.15991 16.2288 5.25326 13.7711 5.34659C9.26045 5.51992 5.62962 9.07987 5.57376 13.3998C5.5179 17.9597 9.37217 21.6663 14.1202 21.6663C17.4159 21.6663 20.2786 19.893 21.703 17.2797C22.4292 15.9731 24.1469 15.4931 25.5014 16.2131Z" fill="white"/>
<path d="M26.7164 7.34667C27.3448 8.51999 26.898 9.95997 25.683 10.6L22.5829 12.2399L14.9023 16.3065C13.7013 16.9465 12.1931 16.6265 11.3832 15.5599L11.3552 15.5199C10.3917 14.2532 10.8106 12.4533 12.2629 11.7066L20.1111 7.65333L25.1663 5.04004C25.7529 5.76003 26.2696 6.53335 26.7164 7.34667Z" fill="#00F8FF"/>
</svg>