<svg width="62" height="61" viewBox="0 0 62 61" fill="none" xmlns="http://www.w3.org/2000/svg">
<path d="M58.1317 36.1366L58.259 36.1961C61.2195 37.7414 62.3655 41.2183 60.8057 44.0118C55.394 53.67 44.507 60.2673 31.9966 60.1782C14.552 60.0593 0.258835 46.8052 0.00416919 30.52C-0.28233 13.6998 14.2336 0 32.2194 0C42.3742 0 51.4467 4.39821 57.3358 11.263L45.8122 17.0876C42.1196 13.7295 36.9944 11.7087 31.3917 11.9168C21.1096 12.3031 12.833 20.2377 12.7056 29.8662C12.5783 40.0296 21.3643 48.2911 32.1876 48.2911C39.7002 48.2911 46.226 44.3387 49.473 38.514C51.1284 35.6017 55.0438 34.5319 58.1317 36.1366Z" fill="#5669FF"/>
<path d="M60.9012 16.3742C62.3337 18.9894 61.315 22.1989 58.5455 23.6253L51.4785 27.2806L33.9702 36.3445C31.2326 37.7709 27.7946 37.0577 25.9483 34.6803L25.8846 34.5911C23.6881 31.768 24.6431 27.7561 27.9538 26.0919L45.844 17.0577L57.3677 11.2331C58.7047 12.8378 59.8825 14.5615 60.9012 16.3742Z" fill="#00F8FF"/>
</svg>
